<svg version="1.2" xmlns="http://www.w3.org/2000/svg" viewBox="0 0 1514 529" width="1514" height="529">
	<title>BDO_Unibank_(logo)-svg</title>
	<style>
		.s0 { fill: #0b2972 } 
		.s1 { fill: #ffb20c } 
	</style>
	<g id="layer1">
		<path id="path2996" fill-rule="evenodd" class="s0" d="m313.9 16.4c108.7 14.8 126.5 71.5 131.2 113.2 4.9 43.8-16.2 85.5-63.1 112.3 61.8 17.1 90.6 45.9 103.9 75.5v-302.8l226.4 0.9c226.2 10.7 289 156.3 290.1 251.1 1 90.9-67 229.5-268 243l-248.5 1.8v-83c-10 20.3-25.3 36.2-40.7 48.1-28.1 21.9-68.1 30.4-103.8 34l-338.7 1.9-2.7-497.8zm-197.9 64.8v141.7l133.4 0.5c58.8-3 75.1-40.9 75-69.9-0.2-26.7-12.6-62-75-73.2zm488.7 363.1l74.6 0.9c161.7 0.4 189.2-113.1 189.6-181.3 0.5-82.1-45.9-183.9-189.6-182.2l-72.8-1zm-488.2-153.7v155.1h173.9c74.4-5.8 88.4-49.8 87-79.6-1.5-33.9-25.3-70.9-88.8-77.3z"/>
		<path id="path3006" fill-rule="evenodd" class="s1" d="m1219.8 528.9c-162.6 0-294.1-118.2-294.1-264.4 0-146.3 131.5-264.5 294.1-264.5 162.7 0 294.2 118.2 294.2 264.5 0 146.2-131.5 264.4-294.2 264.4zm171.3-266.2c0-112.3-75.9-203-169.7-203-93.8 0-169.7 90.7-169.7 203 0 112.3 75.9 203 169.7 203 93.8 0 169.7-90.7 169.7-203z"/>
	</g>
</svg>