<?xml version="1.0" encoding="UTF-8"?><svg id="Layer_1" xmlns="http://www.w3.org/2000/svg" viewBox="0 0 441.21 107.74"><defs><style>.cls-1{fill:#253b80;}.cls-2{fill:#179bd7;}.cls-3{fill:#222d65;}</style></defs><path class="cls-1" d="M167.79,46.96c-1.34,8.76-8.03,8.76-14.5,8.76h-3.68l2.58-16.36c.15-.99,1.01-1.72,2.01-1.72h1.69c4.41,0,8.57,0,10.72,2.51,1.28,1.5,1.67,3.73,1.19,6.8ZM164.98,24.09h-24.42c-1.67,0-3.09,1.21-3.35,2.86l-9.87,62.61c-.2,1.23.76,2.35,2.01,2.35h11.66c1.67,0,3.09-1.21,3.35-2.87l2.66-16.89c.26-1.65,1.68-2.87,3.35-2.87h7.73c16.08,0,25.37-7.78,27.79-23.21,1.09-6.75.05-12.05-3.11-15.76-3.47-4.08-9.62-6.23-17.8-6.23Z"/><path class="cls-1" d="M221.66,69.43c-1.13,6.68-6.43,11.16-13.19,11.16-3.4,0-6.11-1.09-7.85-3.15-1.73-2.05-2.38-4.97-1.84-8.21,1.05-6.62,6.44-11.25,13.1-11.25,3.32,0,6.02,1.1,7.8,3.18,1.78,2.1,2.49,5.04,1.98,8.27ZM237.96,46.68h-11.69c-1,0-1.86.73-2.01,1.72l-.52,3.27-.82-1.19c-2.53-3.67-8.18-4.9-13.81-4.9-12.92,0-23.96,9.79-26.1,23.51-1.12,6.85.47,13.39,4.36,17.96,3.56,4.2,8.66,5.95,14.73,5.95,10.41,0,16.18-6.69,16.18-6.69l-.52,3.25c-.2,1.24.76,2.36,2.01,2.36h10.53c1.67,0,3.09-1.21,3.35-2.87l6.32-40.02c.2-1.23-.75-2.35-2-2.35Z"/><path class="cls-1" d="M300.23,46.68h-11.75c-1.12,0-2.17.56-2.81,1.49l-16.2,23.87-6.87-22.94c-.43-1.44-1.76-2.42-3.26-2.42h-11.55c-1.4,0-2.38,1.37-1.93,2.69l12.94,37.98-12.17,17.18c-.96,1.35,0,3.21,1.66,3.21h11.73c1.11,0,2.16-.54,2.79-1.46l39.08-56.41c.94-1.35-.03-3.2-1.67-3.2Z"/><path class="cls-2" d="M341.95,46.96c-1.33,8.76-8.03,8.76-14.5,8.76h-3.68l2.59-16.36c.15-.99,1-1.72,2.01-1.72h1.69c4.41,0,8.57,0,10.72,2.51,1.28,1.5,1.67,3.73,1.18,6.8ZM339.13,24.09h-24.42c-1.67,0-3.09,1.21-3.35,2.86l-9.87,62.61c-.2,1.23.76,2.35,2.01,2.35h12.53c1.16,0,2.16-.85,2.34-2.01l2.8-17.75c.26-1.65,1.68-2.87,3.35-2.87h7.73c16.09,0,25.37-7.78,27.79-23.21,1.1-6.75.04-12.05-3.12-15.76-3.47-4.08-9.62-6.23-17.79-6.23Z"/><path class="cls-2" d="M395.81,69.43c-1.12,6.68-6.43,11.16-13.19,11.16-3.39,0-6.11-1.09-7.85-3.15-1.73-2.05-2.38-4.97-1.83-8.21,1.06-6.62,6.44-11.25,13.1-11.25,3.32,0,6.02,1.1,7.8,3.18,1.79,2.1,2.5,5.04,1.98,8.27ZM412.11,46.68h-11.68c-1,0-1.86.73-2.01,1.72l-.52,3.27-.82-1.19c-2.53-3.67-8.17-4.9-13.81-4.9-12.92,0-23.95,9.79-26.1,23.51-1.11,6.85.47,13.39,4.35,17.96,3.57,4.2,8.66,5.95,14.73,5.95,10.41,0,16.18-6.69,16.18-6.69l-.52,3.25c-.2,1.24.76,2.36,2.01,2.36h10.53c1.67,0,3.09-1.21,3.35-2.87l6.32-40.02c.19-1.23-.76-2.35-2.02-2.35Z"/><path class="cls-2" d="M425.89,25.81l-10.02,63.75c-.2,1.23.76,2.35,2.01,2.35h10.07c1.67,0,3.1-1.21,3.35-2.87l9.88-62.61c.2-1.24-.76-2.35-2.01-2.35h-11.28c-1,0-1.85.73-2.01,1.72Z"/><path class="cls-1" d="M25.94,104.08l1.87-11.86-4.16-.1H3.79L17.59,4.61c.04-.26.18-.51.39-.69.2-.18.46-.27.74-.27h33.49c11.12,0,18.79,2.31,22.8,6.88,1.88,2.14,3.07,4.38,3.65,6.84.61,2.59.62,5.67.03,9.44l-.04.27v2.41l1.88,1.06c1.58.84,2.84,1.8,3.8,2.9,1.61,1.83,2.65,4.16,3.08,6.92.45,2.84.3,6.22-.44,10.04-.86,4.4-2.24,8.23-4.11,11.36-1.72,2.89-3.91,5.28-6.52,7.14-2.48,1.76-5.44,3.1-8.78,3.96-3.23.84-6.92,1.27-10.97,1.27h-2.61c-1.86,0-3.67.67-5.09,1.87-1.42,1.23-2.37,2.91-2.66,4.74l-.2,1.07-3.3,20.9-.15.77c-.04.24-.11.36-.21.45-.09.08-.22.12-.34.12h-16.09Z"/><path class="cls-2" d="M82.28,27.37c-.1.64-.21,1.29-.34,1.96-4.42,22.67-19.52,30.51-38.82,30.51h-9.82c-2.36,0-4.35,1.71-4.72,4.04l-5.03,31.9-1.42,9.04c-.24,1.53.94,2.91,2.48,2.91h17.43c2.06,0,3.82-1.5,4.14-3.53l.17-.89,3.28-20.82.21-1.14c.32-2.04,2.08-3.54,4.14-3.54h2.61c16.88,0,30.1-6.85,33.96-26.69,1.61-8.29.78-15.21-3.49-20.07-1.29-1.47-2.9-2.68-4.77-3.68Z"/><path class="cls-3" d="M77.66,25.53c-.67-.2-1.37-.37-2.08-.54-.72-.16-1.45-.3-2.21-.42-2.65-.43-5.55-.63-8.66-.63h-26.25c-.65,0-1.26.15-1.81.41-1.21.58-2.11,1.73-2.33,3.13l-5.58,35.37-.16,1.03c.37-2.33,2.36-4.04,4.72-4.04h9.82c19.3,0,34.4-7.84,38.82-30.51.13-.67.24-1.32.34-1.96-1.12-.59-2.33-1.1-3.63-1.53-.32-.11-.65-.21-.99-.31Z"/><path class="cls-1" d="M34.32,27.49c.22-1.4,1.12-2.55,2.33-3.13.55-.26,1.16-.41,1.81-.41h26.25c3.11,0,6.01.2,8.66.63.76.12,1.49.26,2.21.42.71.16,1.41.34,2.08.54.34.1.67.2.99.31,1.3.43,2.51.94,3.63,1.53,1.31-8.38-.01-14.08-4.54-19.25C72.75,2.43,63.74,0,52.2,0H18.71c-2.36,0-4.37,1.71-4.73,4.04L.04,92.46c-.27,1.75,1.07,3.33,2.84,3.33h20.67l5.19-32.93,5.58-35.37Z"/></svg>